<?xml version="1.0" encoding="utf-8"?>
<!-- Generator: Adobe Illustrator 16.0.0, SVG Export Plug-In . SVG Version: 6.00 Build 0)  -->
<!DOCTYPE svg PUBLIC "-//W3C//DTD SVG 1.1//EN" "http://www.w3.org/Graphics/SVG/1.1/DTD/svg11.dtd">
<svg version="1.1" id="Layer_1" xmlns="http://www.w3.org/2000/svg" xmlns:xlink="http://www.w3.org/1999/xlink" x="0px" y="0px"
	 width="52px" height="55px" viewBox="0 0 52 55" enable-background="new 0 0 52 55" xml:space="preserve">
<g>
	<g>
		<path d="M42.992,39.562l8.705,15.233h-8.121L31.26,33.51l6.316,0.053c1.912,0,3.557-0.688,4.938-2.069
			c1.435-1.379,2.123-3.078,2.123-5.042c0-1.911-0.688-3.557-2.123-4.938c-1.381-1.379-3.025-2.07-4.938-2.07H23.072l-0.465-0.795
			l-3.664-6.318h18.633c3.875,0,7.221,1.381,9.98,4.141c2.76,2.814,4.141,6.105,4.141,9.98c0,2.972-0.797,5.626-2.494,8.015
			C47.557,36.854,45.486,38.553,42.992,39.562z"/>
	</g>
	<g>
		<path d="M9.008,15.438L0.303,0.203h8.121L20.74,21.49l-6.316-0.053c-1.912,0-3.557,0.689-4.938,2.07
			c-1.434,1.38-2.123,3.078-2.123,5.043c0,1.91,0.689,3.558,2.123,4.938c1.381,1.379,3.027,2.07,4.938,2.07h14.504l0.467,0.795
			l3.662,6.317H14.424c-3.875,0-7.219-1.381-9.98-4.142c-2.76-2.813-4.141-6.104-4.141-9.979c0-2.973,0.797-5.627,2.494-8.016
			C4.443,18.146,6.514,16.447,9.008,15.438z"/>
	</g>
</g>
</svg>
