<?xml version="1.0" encoding="utf-8"?>
<!-- Generator: Adobe Illustrator 16.0.0, SVG Export Plug-In . SVG Version: 6.00 Build 0)  -->
<!DOCTYPE svg PUBLIC "-//W3C//DTD SVG 1.1//EN" "http://www.w3.org/Graphics/SVG/1.1/DTD/svg11.dtd">
<svg version="1.1" id="Layer_1" xmlns="http://www.w3.org/2000/svg" xmlns:xlink="http://www.w3.org/1999/xlink" x="0px" y="0px"
	 width="819px" height="664px" viewBox="-337 -225 819 664" enable-background="new -337 -225 819 664" xml:space="preserve">
<g>
	<g>
		<g enable-background="new    ">
			<defs>
				<polygon id="SVGID_1_" enable-background="new    " points="-92.869,-200.972 349.352,-116.992 483.189,177.713 74.03,522.138 
					-331.017,166.927 				"/>
			</defs>
			<clipPath id="SVGID_2_">
				<use xlink:href="#SVGID_1_"  overflow="visible"/>
			</clipPath>
			<g clip-path="url(#SVGID_2_)">
				<g>
					<g>
						<g>
							<path fill="#CCCCCC" d="M296.439,187.233l-58.56-79.522l46.479-13.744l54.948,71.32L296.439,187.233 M339.798,165.035
								L284.894,93.81l15.857-4.689l53.586,68.472L339.798,165.035 M284.502,93.303L270.22,74.769
								c1.768,0.522,3.546,0.97,5.332,1.341c1.778,0.369,3.562,0.661,5.349,0.874c1.777,0.212,3.556,0.347,5.33,0.399
								c1.764,0.055,3.523,0.028,5.274-0.078l8.864,11.328L284.502,93.303 M291.08,76.762c-1.77,0.094-3.545,0.105-5.325,0.037
								c-1.79-0.07-3.583-0.221-5.374-0.45c-1.8-0.231-3.598-0.544-5.389-0.934c-1.799-0.392-3.59-0.863-5.368-1.411l-15.309-19.858
								l16.522-3.243L291.08,76.762 M159.609,72.058c-3.365,0.523-6.69,0.727-9.939,0.629c-3.276-0.099-6.468-0.505-9.536-1.198
								c-3.088-0.697-6.043-1.682-8.829-2.932c-2.796-1.255-5.414-2.774-7.818-4.531l71.484-12.211
								c-1.798,2.239-3.804,4.363-5.998,6.339c-2.224,2.003-4.642,3.854-7.231,5.518c-2.625,1.686-5.426,3.18-8.378,4.444
								c-2.99,1.28-6.135,2.324-9.405,3.093L159.609,72.058 M170.418,69.949c2.652-0.962,5.199-2.105,7.623-3.405
								c2.397-1.285,4.674-2.724,6.815-4.292c2.116-1.55,4.1-3.227,5.938-5.009c1.816-1.761,3.49-3.625,5.009-5.57l8.613,11.643
								L170.418,69.949 M205.091,63.184l-8.575-11.633l33.285-5.686c0.715,0.954,1.449,1.894,2.201,2.816
								c0.753,0.924,1.524,1.831,2.312,2.72c0.789,0.89,1.596,1.762,2.418,2.615c0.823,0.854,1.663,1.688,2.519,2.501
								L205.091,63.184 M239.914,56.389c-0.861-0.812-1.706-1.643-2.535-2.493c-0.828-0.85-1.641-1.718-2.436-2.605
								c-0.794-0.887-1.57-1.791-2.328-2.713c-0.758-0.921-1.496-1.859-2.216-2.814l14.072-2.404
								c-0.184,1.062-0.388,2.124-0.612,3.184c-0.226,1.065-0.471,2.13-0.736,3.192c-0.267,1.067-0.554,2.133-0.859,3.195
								c-0.308,1.067-0.635,2.132-0.98,3.192L239.914,56.389 M241.858,56.01c0.342-1.061,0.664-2.125,0.967-3.19
								c0.302-1.061,0.583-2.124,0.845-3.188c0.261-1.06,0.501-2.121,0.723-3.184c0.22-1.058,0.42-2.117,0.601-3.177l0.265-0.045
								l8.125,10.537L241.858,56.01 M253.94,53.652l-8.12-10.524l16.7-2.853l7.951,10.151L253.94,53.652 M245.451,42.642
								l-0.288-0.372c0.313-1.987,0.56-3.98,0.734-5.974c0.175-1.978,0.28-3.958,0.315-5.937c0.035-1.964,0.001-3.928-0.104-5.889
								c-0.104-1.947-0.276-3.893-0.521-5.833l16.569,21.17L245.451,42.642 M230.023,45.26c-2.082-2.811-3.994-5.756-5.718-8.818
								c-1.714-3.044-3.237-6.198-4.555-9.442c-1.307-3.218-2.406-6.518-3.284-9.881c-0.869-3.33-1.519-6.715-1.935-10.137
								c-0.042-0.348-0.082-0.696-0.12-1.043c-0.037-0.347-0.072-0.692-0.104-1.038c-0.032-0.344-0.062-0.688-0.089-1.032
								c-0.026-0.342-0.05-0.685-0.071-1.025l30.486,39.563c-0.006,0.033-0.012,0.065-0.018,0.097
								c-0.006,0.032-0.012,0.063-0.018,0.095c-0.005,0.031-0.011,0.063-0.016,0.095s-0.009,0.063-0.013,0.096L230.023,45.26
								 M122.761,63.465c-2.506-1.923-4.756-4.107-6.709-6.519c-1.948-2.406-3.594-5.032-4.898-7.843
								c-1.298-2.796-2.253-5.767-2.832-8.875c-0.573-3.083-0.774-6.294-0.571-9.595c0.338-5.487,1.763-10.775,4.051-15.687
								c2.237-4.804,5.294-9.236,8.962-13.15c3.581-3.822,7.743-7.149,12.301-9.858c4.452-2.646,9.288-4.707,14.348-6.071
								l48.034,65.262L122.761,63.465 M290.294,35.031c-4.047,0.275-8.147-0.373-12.095-1.813
								c-3.981-1.452-7.773-3.697-11.168-6.581c-3.395-2.884-6.364-6.383-8.704-10.325c-2.322-3.912-4.008-8.229-4.873-12.772
								c-0.435-2.28-0.642-4.51-0.641-6.664c0.001-2.135,0.207-4.194,0.599-6.157c0.388-1.943,0.958-3.791,1.691-5.522
								c0.726-1.713,1.611-3.313,2.64-4.78l42.122,52.023c-0.346,0.176-0.696,0.344-1.054,0.503
								c-0.358,0.161-0.722,0.313-1.092,0.457c-0.37,0.145-0.746,0.28-1.128,0.407c-0.383,0.127-0.771,0.245-1.164,0.354
								L290.294,35.031 M195.869,50.658l-47.838-64.957c0.587-0.15,1.177-0.292,1.771-0.424c0.593-0.132,1.188-0.255,1.786-0.369
								c0.598-0.114,1.197-0.218,1.8-0.312c0.601-0.094,1.204-0.179,1.808-0.253l8.431-0.377c5.617,0.189,10.892,1.271,15.66,3.076
								c4.727,1.789,8.996,4.303,12.64,7.398c3.642,3.094,6.689,6.795,8.957,10.974c2.286,4.214,3.801,8.952,4.331,14.096
								c0.278,2.698,0.275,5.394,0.01,8.06c-0.268,2.695-0.804,5.364-1.59,7.98c-0.796,2.647-1.847,5.243-3.136,7.755
								C199.192,45.85,197.644,48.312,195.869,50.658 M196.338,50.978c1.791-2.375,3.356-4.869,4.675-7.447
								c1.3-2.544,2.361-5.172,3.163-7.853c0.792-2.648,1.332-5.35,1.6-8.077c0.266-2.698,0.267-5.424-0.018-8.153
								c-0.509-4.89-1.895-9.415-3.979-13.478c-2.067-4.028-4.838-7.634-8.156-10.711c-3.316-3.075-7.204-5.645-11.521-7.591
								c-4.347-1.959-9.162-3.301-14.309-3.888l30.611-1.369l15.188,19.716c0.021,0.404,0.046,0.81,0.074,1.216
								s0.061,0.814,0.096,1.222c0.035,0.409,0.074,0.819,0.117,1.229c0.042,0.411,0.089,0.823,0.139,1.236
								c0.413,3.42,1.058,6.806,1.922,10.137c0.873,3.365,1.967,6.668,3.267,9.89c1.31,3.248,2.827,6.407,4.533,9.459
								c1.716,3.069,3.621,6.023,5.695,8.844L196.338,50.978 M213.551,1.263l-14.556-18.879l16.596-0.742
								c-0.395,1.501-0.736,3.034-1.022,4.596c-0.289,1.574-0.522,3.178-0.697,4.81c-0.176,1.644-0.292,3.315-0.347,5.013
								C213.47-2.23,213.478-0.495,213.551,1.263 M244.739,41.725L214.086,1.963c-0.094-1.826-0.117-3.627-0.074-5.402
								c0.043-1.762,0.152-3.497,0.326-5.202c0.173-1.692,0.409-3.355,0.705-4.986c0.295-1.618,0.649-3.204,1.061-4.755l0.494-0.022
								l28.422,36.315c0.262,1.955,0.452,3.915,0.571,5.876c0.121,1.976,0.169,3.955,0.146,5.934
								c-0.022,1.994-0.116,3.989-0.282,5.982C245.288,37.714,245.049,39.722,244.739,41.725 M244.888,16.995L217.16-18.429
								l12.526-0.56c1.838,2.379,3.54,4.869,5.095,7.462c1.562,2.607,2.979,5.323,4.234,8.143c1.266,2.839,2.369,5.789,3.298,8.842
								c0.938,3.082,1.697,6.275,2.264,9.576c0.028,0.164,0.056,0.328,0.082,0.491c0.027,0.164,0.054,0.327,0.08,0.49
								c0.025,0.163,0.051,0.326,0.076,0.489C244.84,16.668,244.864,16.832,244.888,16.995 M262.683,39.717l-17.215-21.984
								c-0.031-0.229-0.063-0.459-0.097-0.688s-0.066-0.459-0.103-0.689c-0.035-0.229-0.071-0.459-0.108-0.688
								c-0.037-0.229-0.076-0.458-0.115-0.687c-0.567-3.295-1.328-6.484-2.264-9.562c-0.928-3.05-2.029-5.996-3.289-8.833
								c-1.252-2.817-2.661-5.532-4.216-8.137c-1.546-2.592-3.238-5.082-5.062-7.461l27.01-1.208l0.229,0.279
								c-1.055,1.486-1.964,3.11-2.711,4.851c-0.755,1.759-1.343,3.638-1.744,5.615c-0.406,1.998-0.621,4.094-0.628,6.269
								c-0.006,2.195,0.202,4.465,0.643,6.789c0.818,4.312,2.366,8.425,4.492,12.189c2.143,3.793,4.857,7.206,7.978,10.093
								c3.122,2.889,6.626,5.23,10.338,6.893c3.688,1.651,7.555,2.621,11.425,2.793L262.683,39.717 M300.224,32.25l-42.25-52.156
								c0.021-0.029,0.044-0.058,0.066-0.087s0.045-0.06,0.067-0.09c0.023-0.03,0.045-0.061,0.067-0.091
								c0.022-0.03,0.044-0.061,0.065-0.092l40.076-1.792c1.541,1.235,3.005,2.598,4.371,4.073c1.368,1.477,2.641,3.069,3.797,4.761
								c1.159,1.697,2.202,3.497,3.107,5.385c0.911,1.898,1.684,3.889,2.295,5.957c1.035,3.504,1.53,6.968,1.527,10.292
								c-0.003,3.375-0.519,6.615-1.505,9.604c-1.005,3.042-2.498,5.828-4.437,8.231C305.499,28.69,303.065,30.739,300.224,32.25
								 M258.567-20.688c1.103-1.398,2.343-2.659,3.703-3.765c1.347-1.095,2.812-2.038,4.382-2.812
								c1.553-0.768,3.208-1.371,4.95-1.793c1.727-0.419,3.541-0.661,5.429-0.711c1.875-0.049,3.74,0.094,5.578,0.409
								c1.825,0.313,3.627,0.798,5.386,1.436c1.75,0.635,3.461,1.424,5.113,2.348c1.647,0.923,3.239,1.982,4.758,3.164
								L258.567-20.688 M198.655-18.058l-7.423-9.626l17.741-0.46l6.882,8.793c-0.012,0.045-0.023,0.089-0.036,0.134
								c-0.013,0.045-0.025,0.09-0.038,0.135s-0.025,0.091-0.037,0.137c-0.013,0.046-0.025,0.092-0.036,0.139L198.655-18.058
								 M216.012-19.886l-6.471-8.272l9.679-0.25c-0.314,0.669-0.618,1.349-0.909,2.037c-0.292,0.691-0.572,1.391-0.84,2.1
								c-0.268,0.712-0.523,1.433-0.767,2.163C216.46-21.376,216.229-20.635,216.012-19.886 M216.817-18.855l-0.43-0.558
								c0.224-0.795,0.463-1.58,0.718-2.355c0.253-0.772,0.521-1.535,0.804-2.288c0.281-0.75,0.577-1.489,0.886-2.218
								c0.308-0.726,0.629-1.442,0.963-2.148l1.305-0.034c0.749,0.702,1.483,1.417,2.204,2.145c0.722,0.729,1.429,1.47,2.12,2.224
								c0.693,0.755,1.371,1.522,2.033,2.302c0.664,0.781,1.312,1.574,1.944,2.38L216.817-18.855 M229.892-19.429
								c-0.626-0.805-1.268-1.598-1.926-2.378c-0.657-0.78-1.329-1.547-2.017-2.301c-0.688-0.753-1.39-1.494-2.105-2.222
								s-1.445-1.442-2.189-2.143l28.301-0.733l6.95,8.59L229.892-19.429 M257.385-20.636l-6.953-8.582l22.877-0.592
								c-1.556,0.254-3.05,0.646-4.475,1.162c-1.437,0.521-2.802,1.171-4.088,1.939c-1.298,0.775-2.514,1.67-3.64,2.676
								c-1.136,1.015-2.179,2.142-3.119,3.37L257.385-20.636 M190.896-28.127L173.1-51.214c2.072,0.33,4.11,0.72,6.11,1.166
								c1.99,0.444,3.945,0.943,5.864,1.497c1.909,0.551,3.783,1.155,5.621,1.811c1.83,0.653,3.625,1.358,5.382,2.111l12.565,16.057
								L190.896-28.127 M195.552-45.305c-1.749-0.732-3.534-1.417-5.354-2.051c-1.827-0.637-3.69-1.224-5.587-1.759
								c-1.906-0.538-3.849-1.022-5.824-1.453c-1.986-0.433-4.009-0.811-6.064-1.131l-7.92-10.268l18.189,0.626L195.552-45.305
								 M106.541-70.641l-37.33-50.682l54.177,6.366l40.48,52.544l-0.272-0.009l0.326,0.425l0.269,0.009l7.854,10.188
								c-0.029-0.005-0.059-0.009-0.088-0.013c-0.03-0.004-0.06-0.009-0.089-0.013c-0.029-0.004-0.059-0.008-0.088-0.013
								c-0.03-0.004-0.06-0.008-0.089-0.013l0.37,0.482c0.029,0.005,0.059,0.009,0.088,0.014c0.029,0.004,0.059,0.009,0.088,0.013
								s0.059,0.009,0.088,0.013s0.059,0.009,0.088,0.013l17.886,23.205l-0.418,0.01l0.341,0.444l0.414-0.011l7.428,9.637
								l-34.422,1.511c-0.346-0.012-0.693-0.021-1.042-0.027c-0.35-0.005-0.7-0.007-1.052-0.006s-0.705,0.006-1.059,0.015
								c-0.354,0.008-0.709,0.021-1.064,0.036c-0.355,0.016-0.712,0.035-1.068,0.057s-0.713,0.049-1.068,0.078
								c-0.357,0.03-0.713,0.062-1.068,0.099c-0.356,0.037-0.711,0.077-1.065,0.12l-2.442,0.107
								c-0.294,0.045-0.586,0.092-0.878,0.142s-0.583,0.102-0.874,0.156c-0.29,0.054-0.58,0.111-0.869,0.17
								c-0.29,0.059-0.579,0.12-0.867,0.184l1.622-0.073c-0.263,0.052-0.524,0.107-0.787,0.164
								c-0.262,0.057-0.523,0.116-0.785,0.176s-0.522,0.123-0.783,0.187c-0.261,0.064-0.521,0.129-0.781,0.196l-0.182-0.248
								c-0.052,0.013-0.104,0.026-0.156,0.04s-0.104,0.027-0.155,0.04c-0.052,0.014-0.104,0.027-0.155,0.041
								s-0.103,0.027-0.154,0.041l0.182,0.252c-5.107,1.389-9.988,3.478-14.483,6.157c-4.603,2.743-8.807,6.108-12.426,9.973
								c-3.707,3.959-6.799,8.44-9.063,13.297c-2.317,4.968-3.763,10.315-4.111,15.866c-0.196,3.135-0.034,6.19,0.462,9.136
								c0.5,2.968,1.337,5.816,2.482,8.515c1.152,2.712,2.612,5.266,4.35,7.63c1.741,2.371,3.756,4.546,6.009,6.497
								c0.17,0.136,0.341,0.272,0.513,0.407c0.173,0.135,0.347,0.27,0.521,0.403c0.176,0.134,0.353,0.267,0.531,0.398
								c0.179,0.132,0.359,0.264,0.541,0.394c0.721,0.542,1.452,1.061,2.192,1.557s1.489,0.967,2.249,1.416
								c0.758,0.448,1.525,0.873,2.302,1.274c0.775,0.401,1.561,0.778,2.354,1.131c1.544,0.664,3.138,1.249,4.775,1.75
								c1.634,0.5,3.31,0.918,5.021,1.249c1.707,0.33,3.448,0.573,5.219,0.727c1.764,0.153,3.554,0.218,5.366,0.188
								c0.788-0.021,1.58-0.06,2.377-0.116c0.795-0.056,1.594-0.13,2.396-0.222c0.801-0.091,1.606-0.199,2.416-0.325
								c0.807-0.125,1.618-0.268,2.433-0.428l91.879-18.024l0.034,0.044l0.332-0.065l14.999,19.479
								c-0.04-0.014-0.08-0.026-0.12-0.039c-0.04-0.014-0.08-0.027-0.12-0.04s-0.079-0.026-0.119-0.039s-0.08-0.026-0.12-0.04
								l0.607,0.79c0.04,0.013,0.08,0.025,0.12,0.038s0.08,0.025,0.12,0.037c0.04,0.014,0.08,0.025,0.12,0.038
								s0.08,0.025,0.12,0.038l14.593,18.945l-46.494,13.686l-0.061-0.082l-0.651,0.191l0.061,0.082l-61.174,18.006
								c0.072-0.03,0.146-0.061,0.218-0.092c0.073-0.03,0.146-0.061,0.218-0.092c0.073-0.03,0.146-0.062,0.218-0.092
								c0.072-0.031,0.145-0.062,0.217-0.093l-9.362,2.754c-0.351,0.117-0.702,0.233-1.054,0.347
								c-0.353,0.114-0.706,0.228-1.061,0.339s-0.711,0.222-1.067,0.33c-0.357,0.109-0.715,0.216-1.074,0.322
								c-1.341,0.395-2.684,0.765-4.027,1.111c-1.35,0.348-2.7,0.671-4.051,0.971c-1.356,0.301-2.713,0.577-4.068,0.828
								c-1.361,0.253-2.722,0.481-4.081,0.685c-4.896,0.779-9.749,1.244-14.547,1.387c-4.857,0.145-9.646-0.04-14.356-0.561
								c-4.758-0.525-9.423-1.393-13.984-2.604c-4.596-1.22-9.075-2.786-13.427-4.7c-4.062-1.715-7.952-3.697-11.643-5.933
								c-3.701-2.242-7.194-4.733-10.455-7.458c-3.263-2.726-6.287-5.679-9.049-8.841c-2.757-3.156-5.248-6.513-7.451-10.052
								l0.084-0.017c-0.038-0.06-0.076-0.119-0.113-0.178c-0.038-0.06-0.076-0.119-0.113-0.179
								c-0.038-0.059-0.075-0.118-0.113-0.178c-0.037-0.06-0.075-0.118-0.112-0.178l-0.074,0.015
								c-0.283-0.467-0.561-0.937-0.833-1.41c-0.273-0.472-0.541-0.947-0.804-1.426c-0.262-0.479-0.52-0.961-0.772-1.445
								c-0.252-0.483-0.5-0.971-0.742-1.461c-0.602-1.19-1.168-2.395-1.701-3.613c-0.531-1.216-1.028-2.444-1.489-3.687
								c-0.46-1.239-0.887-2.491-1.278-3.756c-0.391-1.262-0.746-2.535-1.067-3.821c-0.702-2.729-1.257-5.51-1.663-8.338
								c-0.403-2.809-0.658-5.661-0.76-8.549c-0.102-2.865-0.054-5.764,0.146-8.689c0.198-2.9,0.547-5.823,1.047-8.763
								c0.82-4.816,2.024-9.528,3.573-14.109c1.522-4.502,3.375-8.874,5.521-13.092c2.107-4.142,4.495-8.133,7.128-11.956
								c2.584-3.75,5.403-7.336,8.422-10.742l0.274-0.012c0.045-0.05,0.09-0.099,0.135-0.149c0.045-0.049,0.09-0.099,0.135-0.147
								c0.046-0.049,0.091-0.099,0.136-0.147c0.046-0.049,0.092-0.099,0.137-0.148l-0.292,0.013
								c1.026-1.139,2.075-2.258,3.145-3.355c1.062-1.091,2.146-2.161,3.247-3.209c1.095-1.042,2.209-2.062,3.34-3.061
								c1.124-0.992,2.265-1.962,3.422-2.911l0.41-0.011c0.057-0.047,0.113-0.094,0.17-0.14c0.056-0.047,0.112-0.094,0.169-0.141
								c0.057-0.046,0.113-0.093,0.17-0.14c0.057-0.047,0.113-0.093,0.17-0.14l-0.393,0.01c1.275-1.027,2.57-2.028,3.885-3.002
								c1.305-0.967,2.627-1.908,3.967-2.822c1.33-0.907,2.677-1.788,4.039-2.642c1.353-0.848,2.72-1.668,4.102-2.462
								c2.155-1.268,4.335-2.457,6.54-3.57c2.182-1.101,4.389-2.127,6.621-3.081c2.209-0.943,4.443-1.815,6.703-2.617
								c2.236-0.793,4.498-1.518,6.785-2.175L106.541-70.641 M164.48-62.391l-40.461-52.492l18.805,2.21l39.851,50.921
								L164.48-62.391 M183.248-61.731l-39.83-50.872l43.103,5.065l38.273,47.268L183.248-61.731 M148.414-155.151l-0.395,0.062
								l38.216,47.195l-43.113-5.091l-23.25-29.687l-0.462,0.086l23.119,29.53l-18.82-2.222l-16.76-21.75l-0.495,0.096
								l16.624,21.579l-54.832-6.475l-0.065,0.384l0.293,0.034l-0.012-0.001l42.037,57.122l-161.163-5.667l-0.219,0.559
								l161.728,5.572l11.623,15.799c-3.771,1.12-7.496,2.425-11.16,3.909c-3.727,1.509-7.392,3.203-10.976,5.074
								c-3.648,1.905-7.213,3.994-10.674,6.257c-3.524,2.306-6.941,4.794-10.227,7.455L-169.021-19.1l-0.434,0.758L78.76-24.771
								c-1.155,0.95-2.294,1.922-3.416,2.915c-1.129,1-2.239,2.022-3.331,3.064c-1.1,1.05-2.179,2.121-3.236,3.213
								c-1.065,1.099-2.108,2.219-3.129,3.359L-215.696,0.132l-0.525,0.827L65.121-11.627c-3.011,3.412-5.824,7.004-8.404,10.761
								c-2.63,3.828-5.017,7.825-7.125,11.973c-2.148,4.224-4.004,8.601-5.531,13.107c-1.554,4.586-2.765,9.302-3.593,14.123
								c-0.573,3.334-0.951,6.646-1.138,9.927c-0.189,3.313-0.183,6.589,0.015,9.821c0.198,3.26,0.591,6.47,1.171,9.621
								c0.584,3.174,1.359,6.286,2.318,9.323l-354.618,60.187l-0.848,1.309L43.075,77.762c0.445,1.368,0.929,2.721,1.45,4.057
								c0.522,1.339,1.082,2.66,1.677,3.965c0.597,1.307,1.23,2.596,1.899,3.864c0.67,1.271,1.375,2.523,2.114,3.755
								l-335.245,65.412l-0.795,1.346L50.637,94.122c4.654,7.579,10.593,14.321,17.618,20.049
								c7.018,5.722,15.044,10.372,23.85,13.807c8.704,3.396,18.083,5.571,27.895,6.424c9.605,0.834,19.536,0.395,29.562-1.38
								l-326.883,96.215l-0.572,1.416l415.122-122.749l58.608,79.639L-11.702,344.989l-0.275,1.608l308.272-158.423l66.741,90.681
								l0.284-0.804l-66.413-90.19l42.828-22.01l35.227,45.728l0.234-0.613l-34.97-45.367l14.528-7.466l24.218,30.945l0.219-0.556
								l-23.975-30.627l32.519-16.712l-0.202-0.588l-32.742,16.763l-0.414-0.528l-0.05,0.025l-25.462-32.608l-27.617-35.274
								l0.062-0.018l-0.38-0.487l-0.063,0.019l-8.785-11.217c0.008-0.001,0.016-0.002,0.024-0.002
								c0.008-0.001,0.017-0.002,0.024-0.002c0.009-0.001,0.017-0.002,0.024-0.002c0.009-0.001,0.017-0.002,0.025-0.002
								l-0.423-0.542c-0.009,0.001-0.017,0.001-0.025,0.002s-0.017,0.001-0.025,0.001c-0.008,0.001-0.017,0.002-0.024,0.002
								c-0.009,0.001-0.018,0.002-0.025,0.002l-20.3-25.926l0.141-0.027l-0.37-0.474l-0.138,0.027l-7.945-10.14l27.351-4.672
								c0.221-0.015,0.44-0.034,0.661-0.054c0.22-0.021,0.439-0.045,0.658-0.071c0.22-0.026,0.438-0.056,0.657-0.087
								c0.218-0.032,0.436-0.066,0.652-0.103s0.433-0.077,0.647-0.119c0.214-0.042,0.427-0.087,0.639-0.134s0.422-0.097,0.631-0.149
								c0.208-0.052,0.415-0.107,0.62-0.164l1.502-0.257c0.188-0.064,0.376-0.13,0.562-0.198c0.187-0.068,0.371-0.138,0.554-0.21
								c0.183-0.072,0.364-0.146,0.544-0.223s0.357-0.154,0.534-0.234l-0.894,0.152c0.155-0.063,0.311-0.129,0.464-0.196
								c0.153-0.067,0.306-0.136,0.457-0.207s0.301-0.142,0.45-0.215c0.148-0.073,0.295-0.146,0.441-0.221l0.143,0.174
								c0.029-0.016,0.06-0.031,0.09-0.046c0.029-0.016,0.06-0.031,0.089-0.047c0.03-0.016,0.06-0.032,0.089-0.047
								c0.03-0.016,0.06-0.032,0.09-0.048l-0.143-0.176c2.861-1.542,5.311-3.625,7.295-6.107c1.947-2.438,3.447-5.26,4.454-8.338
								c0.988-3.024,1.503-6.298,1.5-9.709c-0.003-3.357-0.506-6.855-1.554-10.393c-0.609-2.06-1.377-4.042-2.279-5.934
								c-0.897-1.882-1.93-3.678-3.076-5.373c-1.143-1.689-2.4-3.282-3.752-4.764c-1.351-1.479-2.798-2.849-4.322-4.095l0.03-0.001
								c-0.033-0.026-0.066-0.053-0.1-0.079s-0.066-0.053-0.1-0.079c-0.034-0.026-0.067-0.052-0.101-0.079
								c-0.034-0.026-0.067-0.052-0.102-0.079c-0.004-0.003-0.008-0.006-0.013-0.009c-0.004-0.003-0.008-0.006-0.012-0.01
								c-0.004-0.003-0.009-0.006-0.013-0.01c-0.004-0.003-0.008-0.006-0.012-0.01l-0.024,0.001
								c-1.305-1.037-2.665-1.984-4.068-2.833c-1.407-0.85-2.859-1.602-4.346-2.245c-1.49-0.646-3.018-1.183-4.568-1.601
								c-1.558-0.419-3.143-0.719-4.742-0.887l0.824-0.021c-0.38-0.049-0.761-0.09-1.143-0.125
								c-0.384-0.034-0.768-0.061-1.153-0.081c-0.387-0.02-0.775-0.032-1.165-0.037s-0.781-0.002-1.175,0.007l-67.518,1.698
								l-0.023-0.031l-0.076,0.002L196.927-44.26c0.009,0.004,0.018,0.008,0.025,0.011c0.009,0.004,0.018,0.008,0.025,0.011
								c0.009,0.004,0.017,0.008,0.025,0.012c0.009,0.003,0.017,0.007,0.025,0.011l-0.535-0.684
								c-0.009-0.003-0.017-0.007-0.025-0.011c-0.008-0.004-0.017-0.007-0.025-0.011c-0.008-0.003-0.017-0.007-0.025-0.011
								c-0.008-0.004-0.017-0.007-0.025-0.011L183.573-61.32l41.532,1.431l0.138,0.17l0.49,0.017l-0.138-0.17l36.844,1.269
								c-0.099,0.009-0.197,0.017-0.296,0.026c-0.099,0.009-0.197,0.018-0.295,0.027c-0.099,0.009-0.197,0.019-0.295,0.029
								c-0.099,0.01-0.197,0.02-0.295,0.03l3.087,0.105c0.184-0.01,0.366-0.019,0.55-0.027c0.183-0.008,0.366-0.016,0.551-0.022
								c0.184-0.006,0.367-0.012,0.552-0.017c0.184-0.005,0.368-0.009,0.553-0.012l5.993,0.207c1.443,0.122,2.878,0.293,4.301,0.514
								c1.415,0.219,2.821,0.486,4.215,0.799c1.387,0.312,2.763,0.668,4.126,1.069c1.357,0.399,2.703,0.841,4.035,1.324
								c0.723,0.258,1.443,0.53,2.161,0.815c0.716,0.285,1.43,0.583,2.14,0.895c0.71,0.312,1.416,0.637,2.121,0.975
								c0.702,0.338,1.403,0.69,2.102,1.056c2.271,1.176,4.493,2.475,6.653,3.885c2.154,1.407,4.251,2.927,6.277,4.552
								c2.025,1.623,3.984,3.353,5.866,5.179c1.883,1.828,3.691,3.757,5.414,5.778l-0.044,0.001
								c0.024,0.028,0.048,0.057,0.072,0.084c0.024,0.028,0.049,0.057,0.073,0.084c0.023,0.028,0.048,0.057,0.072,0.084
								c0.023,0.028,0.048,0.057,0.072,0.084l0.04-0.001c0.49,0.582,0.973,1.17,1.448,1.767s0.945,1.202,1.406,1.814
								c0.462,0.613,0.916,1.233,1.363,1.861s0.887,1.265,1.318,1.909h-0.004c0.019,0.028,0.037,0.056,0.057,0.084
								c0.019,0.028,0.037,0.056,0.056,0.084s0.038,0.057,0.057,0.085s0.037,0.056,0.056,0.084h0.008
								c0.952,1.434,1.864,2.904,2.733,4.409c0.873,1.51,1.704,3.057,2.488,4.636c0.788,1.587,1.53,3.209,2.223,4.865
								c0.695,1.665,1.342,3.364,1.935,5.097c0.881,2.572,1.617,5.144,2.215,7.704c0.603,2.586,1.064,5.165,1.387,7.725
								c0.325,2.588,0.51,5.16,0.555,7.704c0.045,2.575-0.052,5.123-0.289,7.631l-0.103,0.017c-0.004,0.038-0.009,0.076-0.013,0.113
								s-0.008,0.076-0.013,0.113c-0.004,0.038-0.008,0.076-0.013,0.113c-0.004,0.038-0.008,0.076-0.013,0.113l0.114-0.02
								c-0.088,0.862-0.192,1.719-0.313,2.571c-0.121,0.855-0.26,1.706-0.414,2.551c-0.155,0.849-0.327,1.692-0.516,2.529
								c-0.189,0.841-0.396,1.675-0.617,2.503l-0.166,0.032c-0.011,0.041-0.021,0.082-0.032,0.124
								c-0.011,0.041-0.021,0.083-0.032,0.124s-0.022,0.083-0.033,0.124s-0.021,0.082-0.033,0.123l0.159-0.031
								c-0.239,0.859-0.496,1.711-0.771,2.556c-0.276,0.848-0.571,1.688-0.885,2.52c-0.314,0.835-0.646,1.662-0.998,2.479
								c-0.353,0.821-0.724,1.632-1.113,2.434c-0.634,1.347-1.316,2.653-2.049,3.919c-0.738,1.277-1.527,2.513-2.368,3.707
								c-0.847,1.205-1.746,2.366-2.698,3.484c-0.961,1.127-1.974,2.211-3.042,3.25c-0.051,0.051-0.102,0.102-0.152,0.152
								s-0.102,0.101-0.153,0.151c-0.051,0.051-0.103,0.101-0.153,0.151c-0.052,0.05-0.103,0.101-0.154,0.15l-0.01-0.011
								c-0.014,0.014-0.028,0.027-0.042,0.04c-0.015,0.014-0.028,0.027-0.043,0.041c-0.015,0.013-0.028,0.027-0.043,0.04
								c-0.014,0.013-0.028,0.027-0.042,0.04l18.724,23.388l44.2,54.58l0.186-0.44l-50.116-61.858l64.308-19.015l-0.169-0.414
								l-64.499,18.985l-12.144-14.995c1.809-1.761,3.479-3.647,5.006-5.641c1.506-1.965,2.873-4.036,4.099-6.195
								c1.209-2.128,2.279-4.343,3.211-6.628c0.918-2.254,1.701-4.578,2.346-6.957l68.012-13.349l-0.158-0.357l-67.729,13.215
								c0.219-0.827,0.42-1.66,0.604-2.5c0.184-0.835,0.351-1.678,0.501-2.525c0.149-0.843,0.283-1.692,0.4-2.546
								c0.116-0.85,0.217-1.705,0.302-2.563l67.801-11.582l-0.156-0.343L341.618,26.32c0.227-2.508,0.313-5.055,0.26-7.627
								c-0.054-2.542-0.245-5.111-0.577-7.697c-0.328-2.557-0.794-5.131-1.4-7.714c-0.6-2.556-1.338-5.123-2.218-7.689
								c-0.593-1.729-1.238-3.427-1.933-5.089c-0.691-1.653-1.432-3.274-2.218-4.86c-0.783-1.579-1.611-3.125-2.481-4.635
								c-0.867-1.504-1.777-2.975-2.727-4.409l61.29-2.742l-0.132-0.291l-61.382,2.694c-0.432-0.643-0.87-1.279-1.316-1.908
								c-0.445-0.627-0.897-1.248-1.357-1.86c-0.459-0.612-0.926-1.216-1.399-1.812c-0.473-0.596-0.952-1.185-1.438-1.766
								l58.79-1.523l-0.13-0.293l-58.947,1.479c-2.99-3.527-6.246-6.782-9.705-9.717c-3.461-2.937-7.144-5.569-10.985-7.846
								c-3.865-2.29-7.912-4.231-12.083-5.766c-4.218-1.552-8.585-2.697-13.042-3.367l77.189,2.659l-0.115-0.282l-81.088-2.852
								c-0.25-0.021-0.499-0.04-0.749-0.058s-0.5-0.034-0.751-0.049c-0.251-0.015-0.502-0.028-0.753-0.041
								c-0.252-0.012-0.503-0.022-0.754-0.031c-0.252-0.009-0.504-0.017-0.755-0.022s-0.503-0.01-0.753-0.013
								c-0.251-0.003-0.502-0.004-0.752-0.004c-0.251,0-0.501,0.002-0.75,0.005l-41.164-1.447l-38.263-47.226l119.328,14.021
								l-0.09-0.264l-119.523-14.114L148.414-155.151"/>
							<path fill="#FFFF00" d="M269.94-58.194l-5.595-0.191l-3.087-0.105l-35.525-1.212l-0.49-0.017l-41.459-1.415l12.709,16.237
								l0.535,0.684l9.351,11.945l2.898,3.681l0.023,0.031l67.518-1.698c0.394-0.01,0.785-0.012,1.175-0.007
								s0.778,0.017,1.165,0.037c0.386,0.02,0.77,0.047,1.153,0.081c0.382,0.034,0.763,0.076,1.143,0.125
								c1.484,0.191,2.948,0.493,4.394,0.907c1.439,0.412,2.861,0.934,4.269,1.567c1.402,0.631,2.792,1.373,4.169,2.225
								c1.375,0.851,2.738,1.813,4.094,2.887c0.004,0.003,0.008,0.007,0.012,0.01c0.004,0.003,0.009,0.007,0.013,0.01
								c0.004,0.003,0.008,0.006,0.012,0.01c0.005,0.003,0.009,0.006,0.013,0.009c0.034,0.026,0.067,0.052,0.102,0.079
								c0.033,0.026,0.066,0.052,0.101,0.079c0.033,0.026,0.066,0.052,0.1,0.079s0.066,0.053,0.1,0.079
								c1.694,1.338,3.238,2.75,4.638,4.236c1.401,1.488,2.661,3.055,3.783,4.703c1.125,1.653,2.115,3.391,2.972,5.216
								c0.861,1.834,1.591,3.761,2.19,5.784c0.633,2.132,1.088,4.225,1.357,6.275c0.272,2.067,0.357,4.094,0.248,6.077
								c-0.11,2.002-0.418,3.963-0.933,5.879c-0.521,1.937-1.251,3.831-2.202,5.678c-0.602,1.229-1.262,2.381-1.98,3.455
								c-0.725,1.082-1.51,2.084-2.354,3.005c-0.852,0.928-1.765,1.773-2.739,2.536c-0.982,0.768-2.026,1.45-3.133,2.047
								c-0.03,0.016-0.06,0.032-0.09,0.048c-0.029,0.016-0.059,0.032-0.089,0.047c-0.029,0.016-0.06,0.031-0.089,0.047
								c-0.03,0.016-0.061,0.031-0.09,0.046c-0.087,0.045-0.175,0.089-0.262,0.133c-0.088,0.044-0.176,0.087-0.265,0.13
								c-0.088,0.043-0.177,0.085-0.267,0.127c-0.089,0.042-0.179,0.083-0.269,0.124c-0.177,0.08-0.354,0.158-0.534,0.234
								s-0.361,0.15-0.544,0.223c-0.183,0.072-0.367,0.142-0.554,0.21c-0.186,0.068-0.373,0.134-0.562,0.198
								c-0.323,0.11-0.651,0.213-0.983,0.311c-0.332,0.098-0.669,0.19-1.01,0.275c-0.342,0.086-0.688,0.166-1.038,0.24
								c-0.352,0.074-0.706,0.142-1.065,0.203L263.242,40.2l7.886,10.099l0.37,0.474l20.26,25.947l0.423,0.542l8.75,11.206
								l0.38,0.487l27.556,35.292l25.462,32.608l0.05-0.025l32.355-16.503l-43.512-54.353l-18.724-23.388
								c0.014-0.013,0.028-0.027,0.042-0.04c0.015-0.013,0.028-0.027,0.043-0.04c0.015-0.014,0.028-0.027,0.043-0.041
								c0.014-0.013,0.028-0.026,0.042-0.04c0.053-0.049,0.104-0.098,0.157-0.147c0.052-0.049,0.104-0.099,0.156-0.148
								c0.052-0.05,0.104-0.1,0.155-0.149s0.104-0.1,0.154-0.149c1.068-1.039,2.081-2.123,3.042-3.25
								c0.952-1.118,1.852-2.28,2.698-3.484c0.841-1.194,1.63-2.43,2.368-3.707c0.732-1.266,1.415-2.573,2.049-3.919
								c0.368-0.784,0.72-1.58,1.056-2.39c0.333-0.806,0.65-1.625,0.951-2.458c0.3-0.828,0.583-1.669,0.851-2.523
								c0.266-0.85,0.516-1.712,0.75-2.586c0.012-0.041,0.022-0.082,0.033-0.123s0.022-0.083,0.033-0.124s0.021-0.083,0.032-0.124
								c0.011-0.042,0.021-0.083,0.032-0.124c0.112-0.432,0.221-0.866,0.325-1.304c0.104-0.437,0.205-0.876,0.302-1.318
								c0.097-0.441,0.189-0.886,0.278-1.333c0.089-0.446,0.174-0.896,0.256-1.348c0.079-0.407,0.154-0.814,0.225-1.221
								c0.071-0.406,0.138-0.812,0.2-1.217c0.062-0.405,0.121-0.81,0.176-1.214c0.054-0.404,0.104-0.808,0.15-1.211
								c0.005-0.038,0.009-0.076,0.013-0.113c0.005-0.038,0.009-0.076,0.013-0.113c0.005-0.038,0.009-0.076,0.013-0.113
								s0.009-0.075,0.013-0.113c0.277-2.583,0.393-5.165,0.352-7.751c-0.04-2.555-0.233-5.118-0.574-7.691
								c-0.337-2.545-0.818-5.104-1.44-7.68c-0.614-2.55-1.367-5.12-2.254-7.712c-0.6-1.755-1.243-3.465-1.931-5.132
								c-0.683-1.658-1.409-3.275-2.18-4.853c-0.767-1.57-1.578-3.103-2.434-4.599c-0.852-1.49-1.748-2.946-2.69-4.369
								c-0.019-0.028-0.037-0.056-0.056-0.084s-0.038-0.057-0.057-0.085s-0.037-0.056-0.056-0.084
								c-0.02-0.028-0.038-0.056-0.057-0.084c-0.428-0.639-0.864-1.271-1.311-1.896c-0.445-0.625-0.9-1.244-1.365-1.856
								c-0.464-0.612-0.938-1.218-1.42-1.817c-0.482-0.599-0.975-1.193-1.477-1.781c-0.024-0.028-0.049-0.056-0.072-0.084
								c-0.024-0.028-0.049-0.056-0.072-0.084c-0.024-0.028-0.049-0.056-0.073-0.084c-0.024-0.028-0.048-0.056-0.072-0.084
								c-0.83-0.961-1.687-1.908-2.57-2.84c-0.882-0.931-1.791-1.849-2.728-2.753c-0.937-0.903-1.9-1.793-2.892-2.671
								c-0.991-0.877-2.012-1.743-3.06-2.596c-1.059-0.849-2.12-1.663-3.186-2.442s-2.136-1.524-3.211-2.234
								c-1.075-0.711-2.156-1.388-3.242-2.03c-1.088-0.644-2.181-1.253-3.279-1.828c-0.698-0.365-1.399-0.717-2.102-1.056
								c-0.705-0.338-1.411-0.664-2.121-0.975c-0.71-0.312-1.424-0.61-2.14-0.895c-0.718-0.285-1.438-0.557-2.161-0.815
								c-1.527-0.545-3.069-1.029-4.627-1.453c-1.564-0.426-3.146-0.792-4.744-1.096c-1.607-0.306-3.233-0.55-4.878-0.733
								C273.315-58.015,271.639-58.136,269.94-58.194"/>
							<path fill="#FFFF00" d="M123.479-114.804l-53.268-6.247l36.329,50.41l16.514,22.914c-2.287,0.657-4.549,1.382-6.785,2.175
								c-2.26,0.802-4.494,1.673-6.703,2.617c-2.232,0.954-4.439,1.98-6.621,3.081c-2.205,1.113-4.385,2.303-6.54,3.57
								c-1.324,0.779-2.639,1.587-3.944,2.425c-1.313,0.844-2.619,1.719-3.914,2.624c-1.305,0.912-2.6,1.854-3.886,2.829
								c-1.295,0.981-2.58,1.995-3.855,3.041c-0.057,0.046-0.113,0.093-0.17,0.14c-0.057,0.046-0.113,0.093-0.17,0.14
								c-0.057,0.047-0.113,0.094-0.169,0.141c-0.057,0.046-0.113,0.093-0.17,0.14c-0.593,0.493-1.183,0.992-1.771,1.499
								c-0.59,0.508-1.179,1.024-1.765,1.546c-0.588,0.525-1.175,1.057-1.759,1.596c-0.586,0.541-1.171,1.09-1.753,1.646
								c-0.542,0.505-1.078,1.014-1.607,1.526c-0.531,0.513-1.056,1.03-1.573,1.55c-0.521,0.521-1.033,1.046-1.539,1.574
								c-0.508,0.529-1.009,1.062-1.504,1.597c-0.045,0.049-0.091,0.099-0.137,0.148c-0.045,0.049-0.09,0.098-0.136,0.147
								c-0.045,0.049-0.09,0.098-0.135,0.147c-0.045,0.05-0.09,0.099-0.135,0.149c-3.189,3.504-6.092,7.142-8.707,10.917
								c-2.665,3.847-5.026,7.833-7.084,11.961c-2.095,4.203-3.873,8.549-5.333,13.041c-1.485,4.57-2.641,9.286-3.466,14.153
								c-0.503,2.965-0.867,5.899-1.088,8.798c-0.223,2.925-0.302,5.812-0.233,8.658c0.069,2.869,0.287,5.695,0.654,8.475
								c0.37,2.799,0.892,5.549,1.566,8.248c0.321,1.286,0.677,2.56,1.067,3.821c0.391,1.265,0.817,2.517,1.278,3.756
								c0.461,1.242,0.958,2.471,1.489,3.687c0.532,1.219,1.099,2.423,1.701,3.613c0.246,0.486,0.497,0.971,0.754,1.452
								s0.52,0.962,0.789,1.438c0.269,0.478,0.544,0.953,0.824,1.426s0.566,0.943,0.858,1.411c0.038,0.06,0.075,0.118,0.112,0.178
								c0.038,0.06,0.075,0.119,0.113,0.178c0.038,0.06,0.075,0.119,0.113,0.179c0.038,0.059,0.076,0.118,0.113,0.178
								c1.298,2.027,2.704,4.008,4.218,5.939c1.516,1.936,3.139,3.82,4.868,5.655c1.73,1.837,3.565,3.621,5.504,5.354
								s3.98,3.411,6.123,5.035c1.406,1.034,2.834,2.025,4.282,2.974c1.446,0.947,2.913,1.852,4.399,2.713
								c1.483,0.859,2.986,1.676,4.508,2.448c1.52,0.771,3.056,1.498,4.61,2.182c4.352,1.914,8.831,3.48,13.427,4.7
								c4.562,1.211,9.227,2.078,13.984,2.604c4.71,0.521,9.499,0.705,14.356,0.561c4.798-0.143,9.65-0.607,14.547-1.387
								c1.362-0.217,2.727-0.457,4.094-0.723c1.361-0.264,2.726-0.551,4.091-0.862c1.36-0.31,2.722-0.643,4.085-0.998
								c1.357-0.354,2.716-0.732,4.076-1.132l4.138-1.218l9.362-2.754l60.243-17.72l0.651-0.191l46.185-13.585l-14.703-19.115
								l-0.607-0.79L256.72,58.552l-3.294-4.232l-0.034-0.044L161.513,72.3c-0.814,0.16-1.626,0.303-2.433,0.428
								c-0.81,0.125-1.615,0.234-2.416,0.325c-0.803,0.092-1.602,0.166-2.396,0.222c-0.797,0.057-1.589,0.096-2.377,0.116
								c-1.799,0.049-3.573,0.006-5.322-0.131c-1.756-0.137-3.484-0.367-5.185-0.692c-1.706-0.326-3.382-0.746-5.026-1.26
								c-1.649-0.516-3.266-1.126-4.849-1.832c-0.793-0.354-1.578-0.73-2.354-1.131c-0.776-0.401-1.544-0.826-2.302-1.274
								c-0.76-0.448-1.509-0.92-2.249-1.416s-1.472-1.014-2.192-1.557c-0.182-0.13-0.362-0.262-0.541-0.394
								c-0.179-0.132-0.355-0.265-0.531-0.398c-0.175-0.133-0.349-0.268-0.521-0.403c-0.172-0.135-0.343-0.271-0.513-0.407
								c-2.541-2.047-4.733-4.259-6.58-6.628c-1.843-2.364-3.336-4.879-4.483-7.539c-1.143-2.646-1.939-5.428-2.4-8.338
								c-0.457-2.887-0.581-5.893-0.383-9.009c0.215-3.381,0.775-6.647,1.679-9.794c0.893-3.107,2.12-6.094,3.681-8.954
								c1.539-2.821,3.401-5.515,5.582-8.079c2.149-2.525,4.607-4.92,7.369-7.182c1.74-1.473,3.513-2.822,5.317-4.049
								c1.786-1.215,3.605-2.312,5.457-3.292c1.835-0.971,3.703-1.828,5.604-2.572c1.885-0.738,3.804-1.366,5.757-1.887
								c0.052-0.014,0.103-0.027,0.154-0.041s0.104-0.027,0.155-0.041c0.052-0.013,0.104-0.027,0.155-0.04s0.104-0.026,0.156-0.04
								c0.141-0.036,0.281-0.071,0.423-0.105c0.141-0.035,0.282-0.069,0.424-0.102c0.141-0.034,0.282-0.066,0.424-0.099
								s0.283-0.064,0.426-0.095c0.288-0.064,0.577-0.125,0.867-0.184c0.289-0.059,0.579-0.116,0.869-0.17
								c0.291-0.054,0.582-0.106,0.874-0.156s0.584-0.097,0.878-0.142c0.529-0.082,1.061-0.156,1.595-0.223
								c0.533-0.067,1.069-0.126,1.607-0.179c0.537-0.053,1.077-0.098,1.619-0.136c0.541-0.038,1.085-0.069,1.631-0.093l38.4-1.397
								l-7.343-9.59l-0.341-0.444L172.061-51.37l-0.37-0.482l-7.769-10.145l-0.326-0.425L123.479-114.804"/>
						</g>
					</g>
				</g>
			</g>
		</g>
	</g>
</g>
<radialGradient id="SVGID_3_" cx="112.7549" cy="75.1289" r="371.1384" gradientTransform="matrix(1.0907 0 0 1.1249 6.0205 -55.5591)" gradientUnits="userSpaceOnUse">
	<stop  offset="0" style="stop-color:#FFFFFF;stop-opacity:0"/>
	<stop  offset="0.7296" style="stop-color:#FFFFFF"/>
</radialGradient>
<path fill="url(#SVGID_3_)" d="M579-30c0,216.441-300.131,423.902-509.999,423.902C-140.869,393.902-321,300.441-321,84
	c0-216.443,365.131-420,575-420C463.868-336,579-246.443,579-30z"/>
</svg>
