<?xml version="1.0" encoding="utf-8"?>
<!-- Generator: Adobe Illustrator 16.0.0, SVG Export Plug-In . SVG Version: 6.00 Build 0)  -->
<!DOCTYPE svg PUBLIC "-//W3C//DTD SVG 1.1//EN" "http://www.w3.org/Graphics/SVG/1.1/DTD/svg11.dtd">
<svg version="1.1" id="Layer_1" xmlns="http://www.w3.org/2000/svg" xmlns:xlink="http://www.w3.org/1999/xlink" x="0px" y="0px"
	 width="145px" height="145px" viewBox="0 0 145 145" enable-background="new 0 0 145 145" xml:space="preserve">
<g>
	
		<rect x="21.235" y="21.616" transform="matrix(0.7071 0.7071 -0.7071 0.7071 72.7693 -29.9189)" fill="#FFFF00" width="102.53" height="102.53"/>
	<g>
		<g>
			<path d="M95.773,89.021l11.924,20.868H96.574l-16.87-29.157l8.651,0.072c2.619,0,4.871-0.944,6.764-2.836
				c1.963-1.89,2.907-4.216,2.907-6.906c0-2.618-0.944-4.872-2.907-6.764c-1.893-1.889-4.145-2.836-6.764-2.836H68.49l-0.637-1.088
				l-5.02-8.654h25.521c5.308,0,9.891,1.891,13.67,5.671c3.781,3.854,5.672,8.362,5.672,13.671c0,4.071-1.092,7.707-3.416,10.979
				C102.025,85.312,99.19,87.64,95.773,89.021z"/>
		</g>
		<g>
			<path d="M49.227,55.979L37.303,35.111h11.123l16.87,29.157l-8.651-0.072c-2.619,0-4.871,0.944-6.764,2.835
				c-1.963,1.891-2.907,4.217-2.907,6.908c0,2.617,0.944,4.871,2.907,6.763c1.893,1.889,4.146,2.835,6.764,2.835H76.51l0.64,1.089
				l5.017,8.654H56.645c-5.308,0-9.888-1.891-13.67-5.671c-3.781-3.855-5.672-8.362-5.672-13.67c0-4.072,1.092-7.707,3.416-10.979
				C42.975,59.688,45.81,57.361,49.227,55.979z"/>
		</g>
	</g>
</g>
</svg>
